<svg xmlns="http://www.w3.org/2000/svg" xmlns:xlink="http://www.w3.org/1999/xlink" xmlns:jfreesvg="http://www.jfree.org/jfreesvg/svg" width="1500" height="465" text-rendering="auto" shape-rendering="auto">
  <defs></defs><rect x="0" y="0" width="1500" height="465" style="fill: rgb(246,238,235); fill-opacity: 1.0" transform="matrix(1,0,0,1,0,0)" /><ellipse cx="46" cy="46" rx="46" ry="46" style="stroke-width: 0.75;stroke: rgb(34,48,83);stroke-opacity: 0.8;stroke-linecap: round;; fill: rgb(234,213,207)" transform="matrix(1,0,0,1,0,0)" /><line x1="139" y1="0" x2="139" y2="93" style="stroke-width: 1.0;stroke: rgb(113,151,160);stroke-opacity: 1.0;stroke-linecap: butt;" transform="matrix(1,0,0,1,0,0)" /><rect x="186" y="0" width="93" height="93" style="fill: rgb(234,213,207); fill-opacity: 1.0" transform="matrix(1,0,0,1,0,0)" /><rect x="279" y="0" width="93" height="93" style="fill: rgb(234,213,207); fill-opacity: 1.0" transform="matrix(1,0,0,1,0,0)" /><line x1="465" y1="0" x2="372" y2="93" style="stroke-width: 1.0;stroke: rgb(113,151,160);stroke-opacity: 1.0;stroke-linecap: butt;" transform="matrix(1,0,0,1,0,0)" /><line x1="372" y1="0" x2="465" y2="93" style="stroke-width: 1.0;stroke: rgb(113,151,160);stroke-opacity: 1.0;stroke-linecap: butt;" transform="matrix(1,0,0,1,0,0)" /><ellipse cx="511" cy="46" rx="46" ry="46" style="stroke-width: 0.75;stroke: rgb(34,48,83);stroke-opacity: 0.8;stroke-linecap: round;; fill: rgb(234,213,207)" transform="matrix(1,0,0,1,0,0)" /><ellipse cx="604" cy="46" rx="46" ry="46" style="stroke-width: 0.75;stroke: rgb(34,48,83);stroke-opacity: 0.8;stroke-linecap: round;; fill: rgb(234,213,207)" transform="matrix(1,0,0,1,0,0)" /><line x1="651" y1="46" x2="744" y2="46" style="stroke-width: 1.0;stroke: rgb(113,151,160);stroke-opacity: 1.0;stroke-linecap: butt;" transform="matrix(1,0,0,1,0,0)" /><rect x="744" y="0" width="93" height="93" style="fill: rgb(234,213,207); fill-opacity: 1.0" transform="matrix(1,0,0,1,0,0)" /><line x1="837" y1="46" x2="930" y2="46" style="stroke-width: 1.0;stroke: rgb(113,151,160);stroke-opacity: 1.0;stroke-linecap: butt;" transform="matrix(1,0,0,1,0,0)" /><line x1="883" y1="0" x2="883" y2="93" style="stroke-width: 1.0;stroke: rgb(113,151,160);stroke-opacity: 1.0;stroke-linecap: butt;" transform="matrix(1,0,0,1,0,0)" /><line x1="976" y1="0" x2="976" y2="93" style="stroke-width: 1.0;stroke: rgb(113,151,160);stroke-opacity: 1.0;stroke-linecap: butt;" transform="matrix(1,0,0,1,0,0)" /><line x1="1023" y1="0" x2="1116" y2="93" style="stroke-width: 1.0;stroke: rgb(113,151,160);stroke-opacity: 1.0;stroke-linecap: butt;" transform="matrix(1,0,0,1,0,0)" /><line x1="1209" y1="0" x2="1302" y2="93" style="stroke-width: 1.0;stroke: rgb(113,151,160);stroke-opacity: 1.0;stroke-linecap: butt;" transform="matrix(1,0,0,1,0,0)" /><line x1="1441" y1="0" x2="1441" y2="93" style="stroke-width: 1.0;stroke: rgb(113,151,160);stroke-opacity: 1.0;stroke-linecap: butt;" transform="matrix(1,0,0,1,0,0)" /><rect x="0" y="93" width="93" height="93" style="fill: rgb(234,213,207); fill-opacity: 1.0" transform="matrix(1,0,0,1,0,0)" /><line x1="139" y1="93" x2="139" y2="186" style="stroke-width: 1.0;stroke: rgb(113,151,160);stroke-opacity: 1.0;stroke-linecap: butt;" transform="matrix(1,0,0,1,0,0)" /><line x1="186" y1="139" x2="279" y2="139" style="stroke-width: 1.0;stroke: rgb(113,151,160);stroke-opacity: 1.0;stroke-linecap: butt;" transform="matrix(1,0,0,1,0,0)" /><line x1="232" y1="93" x2="232" y2="186" style="stroke-width: 1.0;stroke: rgb(113,151,160);stroke-opacity: 1.0;stroke-linecap: butt;" transform="matrix(1,0,0,1,0,0)" /><line x1="279" y1="93" x2="372" y2="186" style="stroke-width: 1.0;stroke: rgb(113,151,160);stroke-opacity: 1.0;stroke-linecap: butt;" transform="matrix(1,0,0,1,0,0)" /><rect x="372" y="93" width="93" height="93" style="fill: rgb(234,213,207); fill-opacity: 1.0" transform="matrix(1,0,0,1,0,0)" /><line x1="651" y1="139" x2="744" y2="139" style="stroke-width: 1.0;stroke: rgb(113,151,160);stroke-opacity: 1.0;stroke-linecap: butt;" transform="matrix(1,0,0,1,0,0)" /><ellipse cx="790" cy="139" rx="46" ry="46" style="stroke-width: 0.75;stroke: rgb(34,48,83);stroke-opacity: 0.8;stroke-linecap: round;; fill: rgb(234,213,207)" transform="matrix(1,0,0,1,0,0)" /><ellipse cx="883" cy="139" rx="46" ry="46" style="stroke-width: 0.75;stroke: rgb(34,48,83);stroke-opacity: 0.8;stroke-linecap: round;; fill: rgb(234,213,207)" transform="matrix(1,0,0,1,0,0)" /><line x1="930" y1="139" x2="1023" y2="139" style="stroke-width: 1.0;stroke: rgb(113,151,160);stroke-opacity: 1.0;stroke-linecap: butt;" transform="matrix(1,0,0,1,0,0)" /><line x1="1023" y1="139" x2="1116" y2="139" style="stroke-width: 1.0;stroke: rgb(113,151,160);stroke-opacity: 1.0;stroke-linecap: butt;" transform="matrix(1,0,0,1,0,0)" /><line x1="1069" y1="93" x2="1069" y2="186" style="stroke-width: 1.0;stroke: rgb(113,151,160);stroke-opacity: 1.0;stroke-linecap: butt;" transform="matrix(1,0,0,1,0,0)" /><line x1="1116" y1="139" x2="1209" y2="139" style="stroke-width: 1.0;stroke: rgb(113,151,160);stroke-opacity: 1.0;stroke-linecap: butt;" transform="matrix(1,0,0,1,0,0)" /><line x1="1209" y1="139" x2="1302" y2="139" style="stroke-width: 1.0;stroke: rgb(113,151,160);stroke-opacity: 1.0;stroke-linecap: butt;" transform="matrix(1,0,0,1,0,0)" /><line x1="1255" y1="93" x2="1255" y2="186" style="stroke-width: 1.0;stroke: rgb(113,151,160);stroke-opacity: 1.0;stroke-linecap: butt;" transform="matrix(1,0,0,1,0,0)" /><rect x="1395" y="93" width="93" height="93" style="fill: rgb(234,213,207); fill-opacity: 1.0" transform="matrix(1,0,0,1,0,0)" /><ellipse cx="46" cy="232" rx="46" ry="46" style="stroke-width: 0.75;stroke: rgb(34,48,83);stroke-opacity: 0.8;stroke-linecap: round;; fill: rgb(234,213,207)" transform="matrix(1,0,0,1,0,0)" /><line x1="93" y1="232" x2="186" y2="232" style="stroke-width: 1.0;stroke: rgb(113,151,160);stroke-opacity: 1.0;stroke-linecap: butt;" transform="matrix(1,0,0,1,0,0)" /><rect x="186" y="186" width="93" height="93" style="fill: rgb(234,213,207); fill-opacity: 1.0" transform="matrix(1,0,0,1,0,0)" /><line x1="325" y1="186" x2="325" y2="279" style="stroke-width: 1.0;stroke: rgb(113,151,160);stroke-opacity: 1.0;stroke-linecap: butt;" transform="matrix(1,0,0,1,0,0)" /><rect x="372" y="186" width="93" height="93" style="fill: rgb(234,213,207); fill-opacity: 1.0" transform="matrix(1,0,0,1,0,0)" /><line x1="465" y1="186" x2="558" y2="279" style="stroke-width: 1.0;stroke: rgb(113,151,160);stroke-opacity: 1.0;stroke-linecap: butt;" transform="matrix(1,0,0,1,0,0)" /><rect x="558" y="186" width="93" height="93" style="fill: rgb(234,213,207); fill-opacity: 1.0" transform="matrix(1,0,0,1,0,0)" /><line x1="744" y1="186" x2="651" y2="279" style="stroke-width: 1.0;stroke: rgb(113,151,160);stroke-opacity: 1.0;stroke-linecap: butt;" transform="matrix(1,0,0,1,0,0)" /><line x1="651" y1="186" x2="744" y2="279" style="stroke-width: 1.0;stroke: rgb(113,151,160);stroke-opacity: 1.0;stroke-linecap: butt;" transform="matrix(1,0,0,1,0,0)" /><line x1="744" y1="232" x2="837" y2="232" style="stroke-width: 1.0;stroke: rgb(113,151,160);stroke-opacity: 1.0;stroke-linecap: butt;" transform="matrix(1,0,0,1,0,0)" /><line x1="790" y1="186" x2="790" y2="279" style="stroke-width: 1.0;stroke: rgb(113,151,160);stroke-opacity: 1.0;stroke-linecap: butt;" transform="matrix(1,0,0,1,0,0)" /><ellipse cx="883" cy="232" rx="46" ry="46" style="stroke-width: 0.75;stroke: rgb(34,48,83);stroke-opacity: 0.8;stroke-linecap: round;; fill: rgb(234,213,207)" transform="matrix(1,0,0,1,0,0)" /><ellipse cx="976" cy="232" rx="46" ry="46" style="stroke-width: 0.75;stroke: rgb(34,48,83);stroke-opacity: 0.8;stroke-linecap: round;; fill: rgb(234,213,207)" transform="matrix(1,0,0,1,0,0)" /><line x1="1023" y1="232" x2="1116" y2="232" style="stroke-width: 1.0;stroke: rgb(113,151,160);stroke-opacity: 1.0;stroke-linecap: butt;" transform="matrix(1,0,0,1,0,0)" /><line x1="1069" y1="186" x2="1069" y2="279" style="stroke-width: 1.0;stroke: rgb(113,151,160);stroke-opacity: 1.0;stroke-linecap: butt;" transform="matrix(1,0,0,1,0,0)" /><line x1="1162" y1="186" x2="1162" y2="279" style="stroke-width: 1.0;stroke: rgb(113,151,160);stroke-opacity: 1.0;stroke-linecap: butt;" transform="matrix(1,0,0,1,0,0)" /><line x1="1255" y1="186" x2="1255" y2="279" style="stroke-width: 1.0;stroke: rgb(113,151,160);stroke-opacity: 1.0;stroke-linecap: butt;" transform="matrix(1,0,0,1,0,0)" /><line x1="1348" y1="186" x2="1348" y2="279" style="stroke-width: 1.0;stroke: rgb(113,151,160);stroke-opacity: 1.0;stroke-linecap: butt;" transform="matrix(1,0,0,1,0,0)" /><line x1="1395" y1="232" x2="1488" y2="232" style="stroke-width: 1.0;stroke: rgb(113,151,160);stroke-opacity: 1.0;stroke-linecap: butt;" transform="matrix(1,0,0,1,0,0)" /><line x1="1441" y1="186" x2="1441" y2="279" style="stroke-width: 1.0;stroke: rgb(113,151,160);stroke-opacity: 1.0;stroke-linecap: butt;" transform="matrix(1,0,0,1,0,0)" /><line x1="46" y1="279" x2="46" y2="372" style="stroke-width: 1.0;stroke: rgb(113,151,160);stroke-opacity: 1.0;stroke-linecap: butt;" transform="matrix(1,0,0,1,0,0)" /><line x1="186" y1="279" x2="279" y2="372" style="stroke-width: 1.0;stroke: rgb(113,151,160);stroke-opacity: 1.0;stroke-linecap: butt;" transform="matrix(1,0,0,1,0,0)" /><ellipse cx="325" cy="325" rx="46" ry="46" style="stroke-width: 0.75;stroke: rgb(34,48,83);stroke-opacity: 0.8;stroke-linecap: round;; fill: rgb(234,213,207)" transform="matrix(1,0,0,1,0,0)" /><line x1="372" y1="279" x2="465" y2="372" style="stroke-width: 1.0;stroke: rgb(113,151,160);stroke-opacity: 1.0;stroke-linecap: butt;" transform="matrix(1,0,0,1,0,0)" /><line x1="558" y1="279" x2="465" y2="372" style="stroke-width: 1.0;stroke: rgb(113,151,160);stroke-opacity: 1.0;stroke-linecap: butt;" transform="matrix(1,0,0,1,0,0)" /><line x1="465" y1="279" x2="558" y2="372" style="stroke-width: 1.0;stroke: rgb(113,151,160);stroke-opacity: 1.0;stroke-linecap: butt;" transform="matrix(1,0,0,1,0,0)" /><ellipse cx="604" cy="325" rx="46" ry="46" style="stroke-width: 0.75;stroke: rgb(34,48,83);stroke-opacity: 0.8;stroke-linecap: round;; fill: rgb(234,213,207)" transform="matrix(1,0,0,1,0,0)" /><ellipse cx="697" cy="325" rx="46" ry="46" style="stroke-width: 0.75;stroke: rgb(34,48,83);stroke-opacity: 0.8;stroke-linecap: round;; fill: rgb(234,213,207)" transform="matrix(1,0,0,1,0,0)" /><line x1="837" y1="279" x2="744" y2="372" style="stroke-width: 1.0;stroke: rgb(113,151,160);stroke-opacity: 1.0;stroke-linecap: butt;" transform="matrix(1,0,0,1,0,0)" /><line x1="744" y1="279" x2="837" y2="372" style="stroke-width: 1.0;stroke: rgb(113,151,160);stroke-opacity: 1.0;stroke-linecap: butt;" transform="matrix(1,0,0,1,0,0)" /><line x1="837" y1="325" x2="930" y2="325" style="stroke-width: 1.0;stroke: rgb(113,151,160);stroke-opacity: 1.0;stroke-linecap: butt;" transform="matrix(1,0,0,1,0,0)" /><line x1="883" y1="279" x2="883" y2="372" style="stroke-width: 1.0;stroke: rgb(113,151,160);stroke-opacity: 1.0;stroke-linecap: butt;" transform="matrix(1,0,0,1,0,0)" /><line x1="1023" y1="325" x2="1116" y2="325" style="stroke-width: 1.0;stroke: rgb(113,151,160);stroke-opacity: 1.0;stroke-linecap: butt;" transform="matrix(1,0,0,1,0,0)" /><line x1="1069" y1="279" x2="1069" y2="372" style="stroke-width: 1.0;stroke: rgb(113,151,160);stroke-opacity: 1.0;stroke-linecap: butt;" transform="matrix(1,0,0,1,0,0)" /><line x1="1162" y1="279" x2="1162" y2="372" style="stroke-width: 1.0;stroke: rgb(113,151,160);stroke-opacity: 1.0;stroke-linecap: butt;" transform="matrix(1,0,0,1,0,0)" /><line x1="1209" y1="325" x2="1302" y2="325" style="stroke-width: 1.0;stroke: rgb(113,151,160);stroke-opacity: 1.0;stroke-linecap: butt;" transform="matrix(1,0,0,1,0,0)" /><rect x="1395" y="279" width="93" height="93" style="fill: rgb(234,213,207); fill-opacity: 1.0" transform="matrix(1,0,0,1,0,0)" /><line x1="0" y1="418" x2="93" y2="418" style="stroke-width: 1.0;stroke: rgb(113,151,160);stroke-opacity: 1.0;stroke-linecap: butt;" transform="matrix(1,0,0,1,0,0)" /><rect x="93" y="372" width="93" height="93" style="fill: rgb(234,213,207); fill-opacity: 1.0" transform="matrix(1,0,0,1,0,0)" /><line x1="186" y1="372" x2="279" y2="465" style="stroke-width: 1.0;stroke: rgb(113,151,160);stroke-opacity: 1.0;stroke-linecap: butt;" transform="matrix(1,0,0,1,0,0)" /><line x1="325" y1="372" x2="325" y2="465" style="stroke-width: 1.0;stroke: rgb(113,151,160);stroke-opacity: 1.0;stroke-linecap: butt;" transform="matrix(1,0,0,1,0,0)" /><line x1="372" y1="418" x2="465" y2="418" style="stroke-width: 1.0;stroke: rgb(113,151,160);stroke-opacity: 1.0;stroke-linecap: butt;" transform="matrix(1,0,0,1,0,0)" /><line x1="418" y1="372" x2="418" y2="465" style="stroke-width: 1.0;stroke: rgb(113,151,160);stroke-opacity: 1.0;stroke-linecap: butt;" transform="matrix(1,0,0,1,0,0)" /><rect x="465" y="372" width="93" height="93" style="fill: rgb(234,213,207); fill-opacity: 1.0" transform="matrix(1,0,0,1,0,0)" /><line x1="604" y1="372" x2="604" y2="465" style="stroke-width: 1.0;stroke: rgb(113,151,160);stroke-opacity: 1.0;stroke-linecap: butt;" transform="matrix(1,0,0,1,0,0)" /><line x1="651" y1="418" x2="744" y2="418" style="stroke-width: 1.0;stroke: rgb(113,151,160);stroke-opacity: 1.0;stroke-linecap: butt;" transform="matrix(1,0,0,1,0,0)" /><line x1="883" y1="372" x2="883" y2="465" style="stroke-width: 1.0;stroke: rgb(113,151,160);stroke-opacity: 1.0;stroke-linecap: butt;" transform="matrix(1,0,0,1,0,0)" /><line x1="930" y1="372" x2="1023" y2="465" style="stroke-width: 1.0;stroke: rgb(113,151,160);stroke-opacity: 1.0;stroke-linecap: butt;" transform="matrix(1,0,0,1,0,0)" /><ellipse cx="1069" cy="418" rx="46" ry="46" style="stroke-width: 0.75;stroke: rgb(34,48,83);stroke-opacity: 0.8;stroke-linecap: round;; fill: rgb(234,213,207)" transform="matrix(1,0,0,1,0,0)" /><line x1="1116" y1="418" x2="1209" y2="418" style="stroke-width: 1.0;stroke: rgb(113,151,160);stroke-opacity: 1.0;stroke-linecap: butt;" transform="matrix(1,0,0,1,0,0)" /><line x1="1255" y1="372" x2="1255" y2="465" style="stroke-width: 1.0;stroke: rgb(113,151,160);stroke-opacity: 1.0;stroke-linecap: butt;" transform="matrix(1,0,0,1,0,0)" /><line x1="1348" y1="372" x2="1348" y2="465" style="stroke-width: 1.0;stroke: rgb(113,151,160);stroke-opacity: 1.0;stroke-linecap: butt;" transform="matrix(1,0,0,1,0,0)" /><rect x="1395" y="372" width="93" height="93" style="fill: rgb(234,213,207); fill-opacity: 1.0" transform="matrix(1,0,0,1,0,0)" /></svg>